<svg width="118" height="118" viewBox="0 0 118 118" fill="none" xmlns="http://www.w3.org/2000/svg">
<g clip-path="url(#clip0_1523_210)">
<path d="M59 56.5957C61.1344 56.9112 62.1201 59.2453 62.1201 59.2453C65.2402 69.3075 66.0498 69.5309 69.9795 74.0389C73.9093 78.5469 85.8141 79.8165 93.9048 76.2338C101.996 72.651 102.921 56.9322 102.921 56.9322L105 54.6217V47.5718C98.1578 45.4112 77.5104 45.1509 63.9706 48.9597C61.5707 49.3014 56.4713 49.3093 54.032 48.9597C39.9586 45.0011 19.5031 45.5189 13 47.5718V54.6217L15.0792 56.9322C15.0792 56.9322 16.0045 72.651 24.0952 76.2338C32.1859 79.8165 44.0907 78.5443 48.0205 74.0389C51.9502 69.5309 52.7598 69.3075 55.8799 59.2453C55.8799 59.2453 56.8682 56.9112 59 56.5957ZM89.8594 75.0798C81.7687 77.0434 73.2153 75.8894 69.7482 69.5309C66.2811 63.175 65.4715 56.4696 68.0134 54.0434C68.0134 54.0434 70.6709 50.692 77.952 50.2293C85.2331 49.7667 96.097 48.6101 98.4102 55.0843C100.721 61.5558 97.9475 73.1137 89.8568 75.0798H89.8594ZM19.5872 55.0843C21.8977 48.6128 32.7642 49.7667 40.0454 50.2293C47.3265 50.692 49.984 54.0434 49.984 54.0434C52.5258 56.4696 51.7189 63.175 48.2491 69.5309C44.7821 75.8868 36.2287 77.0434 28.1379 75.0772C20.0472 73.111 17.2741 61.5532 19.5846 55.0817L19.5872 55.0843Z" fill="white"/>
</g>
<g clip-path="url(#clip1_1523_210)">
<path d="M59 0C26.4163 0 0 26.4163 0 59C0 91.5837 26.4163 118 59 118C91.5837 118 118 91.5837 118 59C118 26.4163 91.5837 0 59 0ZM59 6.50836C72.3235 6.50836 84.4854 11.4748 93.7418 19.6562L19.6562 93.7418C11.4775 84.4854 6.50836 72.3235 6.50836 59C6.50836 30.0087 30.0087 6.50836 59 6.50836ZM59 111.492C45.6765 111.492 33.5146 106.525 24.2582 98.3438L98.3438 24.2582C106.523 33.5146 111.492 45.6765 111.492 59C111.492 87.9913 87.9913 111.492 59 111.492Z" fill="white"/>
</g>
<defs>
<clipPath id="clip0_1523_210">
<rect width="92" height="32.3104" fill="white" transform="translate(13 46)"/>
</clipPath>
<clipPath id="clip1_1523_210">
<rect width="118" height="118" fill="white"/>
</clipPath>
</defs>
</svg>
