<svg width="118" height="118" viewBox="0 0 118 118" fill="none" xmlns="http://www.w3.org/2000/svg">
<g clip-path="url(#clip0_1523_218)">
<path d="M104.566 66.541C103.609 67.9401 100.494 68.3364 99.0251 68.822C94.4382 70.3366 88.6212 71.3419 84.4628 73.7935C76.1276 78.7099 71.4566 88.9627 61.5206 91.4826C51.9684 93.9053 45.0763 87.2355 37.4928 82.7286C35.6213 81.6157 33.9206 80.046 31.6705 80.6471C29.5099 81.2246 27.2072 83.0567 25.2621 84.1014C21.9159 85.8968 18.0151 87.5741 14.9108 84.2957C7.18803 76.1323 24.9992 69.7197 29.8857 67.0423C31.5181 66.1473 35.3137 64.8401 36.4545 63.3098C37.5112 61.8923 36.9198 59.5772 36.9776 57.9209C37.1511 52.889 38.2052 47.886 40.5025 43.3791C44.1195 36.2867 50.0364 30.5145 57.4016 27.4119C59.1286 26.6849 64.7721 25.1913 68.3391 25.0181C71.9061 24.8448 80.767 25.8449 84.0054 27.2177C87.9877 28.9055 91.6283 31.3939 94.6958 34.4361C102.232 41.9065 103.906 50.5555 104.874 60.7033C104.879 60.7768 105.297 65.4674 104.563 66.541H104.566ZM52.6912 67.7668C52.8489 67.8587 52.9699 67.9532 53.1065 68.0083C62.1041 71.6438 71.3909 72.5047 80.9247 70.851C81.3137 70.7828 81.8342 70.3523 81.9446 69.9875C84.6152 61.0051 84.9806 52.0175 81.8447 43.051C80.1256 38.1398 77.8414 33.9111 73.8144 30.4411C70.5392 27.6193 67.4769 27.5406 64.2911 30.4647C62.3302 32.2653 60.5375 33.9925 59.1785 36.2709C53.3852 45.9935 52.2785 56.7423 52.6886 67.7642L52.6912 67.7668ZM24.0319 74.0744C25.1832 74.329 25.9639 74.4996 26.742 74.6755C31.8493 75.8331 36.6832 77.9487 41.1176 80.7153C45.2156 83.2746 48.7116 87.0544 53.5061 88.2802C63.6603 90.8736 72.1295 81.1878 78.375 74.5757C73.3229 74.5757 68.4784 75.0955 63.4368 74.2608C58.8211 73.4969 54.4024 71.8826 50.0416 70.2316C46.3485 68.8325 41.1387 65.3283 37.1932 66.7956C32.6983 68.465 28.2324 71.754 24.0293 74.077L24.0319 74.0744ZM77.342 28.6456C87.2149 40.9694 89.3572 54.7317 85.3591 69.7407C88.4188 69.5071 100.253 65.7693 101.291 63.5723C102.158 61.7348 101.336 57.1492 101.123 55.1543C100.86 52.6738 100.339 50.2221 99.5087 47.8676C96.1415 38.3157 87.3384 30.5565 77.342 28.6456ZM58.9998 30.4673C54.7731 32.0764 51.2455 34.6199 48.2437 37.9062C41.9141 44.8333 39.8323 53.1436 40.3396 62.2808C40.358 62.5984 40.5972 63.0762 40.8574 63.1838C43.6148 64.3177 46.3984 65.3939 49.4633 66.5987C49.1558 53.4849 51.1325 41.1899 58.9998 30.4673ZM28.3296 78.6706C28.3296 78.5104 28.327 78.3529 28.3244 78.1928C25.4356 77.723 15.9543 74.5049 16.8007 80.3662C17.6497 86.2512 25.8982 79.9672 28.3296 78.6679V78.6706Z" fill="white"/>
</g>
<g clip-path="url(#clip1_1523_218)">
<path d="M59 0C26.4163 0 0 26.4163 0 59C0 91.5837 26.4163 118 59 118C91.5837 118 118 91.5837 118 59C118 26.4163 91.5837 0 59 0ZM59 6.50836C72.3235 6.50836 84.4854 11.4748 93.7418 19.6562L19.6562 93.7418C11.4775 84.4854 6.50836 72.3235 6.50836 59C6.50836 30.0087 30.0087 6.50836 59 6.50836ZM59 111.492C45.6765 111.492 33.5146 106.525 24.2582 98.3438L98.3438 24.2582C106.523 33.5146 111.492 45.6765 111.492 59C111.492 87.9913 87.9913 111.492 59 111.492Z" fill="white"/>
</g>
<defs>
<clipPath id="clip0_1523_218">
<rect width="92" height="67" fill="white" transform="translate(13 25)"/>
</clipPath>
<clipPath id="clip1_1523_218">
<rect width="118" height="118" fill="white"/>
</clipPath>
</defs>
</svg>
