<svg width="118" height="118" viewBox="0 0 118 118" fill="none" xmlns="http://www.w3.org/2000/svg">
<g clip-path="url(#clip0_1523_226)">
<path d="M98.3328 61.0925C97.6632 64.5929 96.6207 68.1642 95.2368 71.7092C92.8761 77.7489 90.3578 81.5907 90.2528 81.7508C89.9823 82.1605 89.5464 82.4205 89.0554 82.4599C88.6956 82.4887 88.3463 82.3995 88.047 82.2025C87.3143 81.7193 87.1095 80.7294 87.5927 79.9967C87.6163 79.96 90.0847 76.1681 92.3089 70.454C93.0048 68.6658 93.6061 66.8696 94.1129 65.084C94.1129 65.0761 94.1182 65.0682 94.1208 65.0603C94.3072 64.4012 94.4806 63.7447 94.6407 63.0883C94.6407 63.0804 94.6434 63.0751 94.646 63.0672C94.8613 62.1849 95.053 61.3052 95.2184 60.4308C95.9957 56.3396 96.2294 52.3534 95.9143 48.5852C95.3996 42.4431 93.7978 37.0993 91.1587 32.6929L93.9842 31.2093C96.8229 36.0043 98.5403 41.7577 99.0891 48.3199C99.4305 52.398 99.1784 56.6967 98.3381 61.0952L98.3328 61.0925ZM37.7995 17.2655C44.0466 13.1086 51.3809 11 59.6001 11C67.8193 11 75.1536 13.1086 81.4033 17.2655C87.5034 21.3252 91.2323 26.4616 93.2858 30.0539C93.2858 30.0565 93.2884 30.0617 93.291 30.0644C93.5746 30.5449 93.8477 31.0386 94.1077 31.5401L91.1614 32.7848C90.3053 31.1725 89.2943 29.6468 88.152 28.242C88.152 28.242 88.1494 28.2393 88.1468 28.2367C88.1468 28.2367 88.1468 28.2341 88.1441 28.2315C84.9195 24.4895 80.8965 21.9502 75.8416 20.4718C71.5954 19.2271 66.5851 18.673 59.5975 18.673C52.6099 18.673 47.6022 19.2271 43.3586 20.4718C38.3063 21.9528 34.2834 24.4895 31.0587 28.2315C31.0587 28.2315 31.0587 28.2341 31.0561 28.2367C31.0561 28.2367 31.0535 28.2393 31.0508 28.242C29.9059 29.6468 28.8949 31.1725 28.0389 32.7848L25.0926 31.5401C25.3525 31.0386 25.6283 30.5423 25.9119 30.0617C25.9119 30.0591 25.9171 30.0539 25.9171 30.0512C27.9706 26.4563 31.6995 21.3226 37.7969 17.2629L37.7995 17.2655ZM20.2687 48.5011C20.7493 41.9363 22.4062 36.1644 25.1924 31.3406L28.0336 32.7953C25.4418 37.2279 23.8978 42.5901 23.4461 48.7348C23.1704 52.5083 23.4461 56.4919 24.2654 60.5726C24.4413 61.4444 24.6409 62.3215 24.8667 63.2012C24.8667 63.209 24.8694 63.2143 24.872 63.2222C25.0401 63.876 25.2186 64.5299 25.4129 65.1864C25.4129 65.1943 25.4182 65.2021 25.4208 65.21C25.946 66.9904 26.5657 68.7787 27.2826 70.5591C29.5961 76.3283 32.0723 80.0151 32.096 80.0519C32.587 80.7793 32.3927 81.7719 31.6653 82.2629C31.366 82.4651 31.0167 82.557 30.6596 82.5308C30.1685 82.494 29.73 82.2419 29.4543 81.8349C29.3466 81.6747 26.7863 77.8592 24.3652 71.8458C22.9419 68.3165 21.8627 64.7557 21.1563 61.2632C20.2687 56.8726 19.9694 52.5792 20.2687 48.4985V48.5011ZM31.6128 99.602L19.4153 76.3729C19.1002 75.7742 18.961 75.102 19.0109 74.4271L19.2709 70.8978L36.5128 102.638L33.3407 101.222C32.6028 100.894 31.9883 100.316 31.6128 99.602ZM42.9805 100.668C40.5147 101.682 38.5505 102.609 37.7444 103L19.5334 69.4772L21.9782 67.9541C22.4377 69.3669 22.9498 70.7823 23.517 72.1924C25.9749 78.2925 28.5877 82.1868 28.698 82.3496C29.1313 82.9903 29.8193 83.3894 30.5913 83.4446C31.1559 83.4866 31.7021 83.3395 32.1747 83.0218C33.3197 82.2498 33.6216 80.69 32.8496 79.5451C32.826 79.5083 30.3839 75.8556 28.1255 70.2229C28.0389 70.005 27.9522 69.7844 27.8656 69.5665L45.252 100.385C44.6611 100.274 43.8917 100.293 42.9779 100.668H42.9805ZM46.4835 100.713L26.2742 64.8897C26.1193 64.3592 25.9723 63.8314 25.8331 63.3036L27.6555 62.1482C27.6739 62.8756 27.8603 63.6056 28.2358 64.2857L46.8354 97.9135C47.2398 98.6462 47.8228 99.2423 48.5134 99.6572L46.4835 100.713ZM52.7333 98.9403C52.1057 99.2869 51.3967 99.4471 50.685 99.4025C50.6719 99.4025 50.6588 99.4025 50.6456 99.3998C50.32 99.3762 50.0075 99.3106 49.7082 99.2108C49.6977 99.2055 49.6872 99.2029 49.674 99.2003C48.8154 98.9009 48.088 98.2943 47.6337 97.475L29.0315 63.8445C28.031 62.0353 28.6875 59.7454 30.4994 58.7449C31.1585 58.3799 31.8833 58.2355 32.5844 58.288C33.8081 58.3773 34.9635 59.0627 35.599 60.2128L54.1986 93.8407C55.199 95.6526 54.5399 97.9398 52.7306 98.9403H52.7333ZM69.2085 99.5364C68.4968 99.5889 67.7878 99.4366 67.1576 99.0952C65.3378 98.1131 64.6551 95.8312 65.6372 94.0114L83.8822 60.1892C84.8643 58.3694 87.1463 57.6867 88.9661 58.6688C90.7885 59.6509 91.4686 61.9328 90.4865 63.7526L72.2414 97.5748C71.6296 98.7092 70.4952 99.4418 69.2085 99.5364ZM73.0423 98.0054L91.2874 64.1833C91.655 63.5005 91.8362 62.7679 91.8441 62.0405L93.677 63.1749C93.5457 63.7054 93.4039 64.2358 93.2542 64.7662L73.4231 100.799L71.3827 99.7648C72.0707 99.3421 72.6458 98.7407 73.0423 98.0054ZM74.652 100.458L91.7128 69.4588C91.6314 69.6794 91.5474 69.8973 91.4607 70.1179C89.2602 75.7794 86.8601 79.4531 86.8338 79.4899C86.0749 80.6427 86.3953 82.1999 87.5454 82.9588C88.0181 83.2713 88.5669 83.4104 89.1315 83.3632C89.9009 83.2975 90.5863 82.8931 91.0117 82.2472C91.1193 82.0844 93.6901 78.1638 96.085 72.0349C96.6391 70.6195 97.1354 69.1988 97.5792 67.7808L100.04 69.2776L82.1833 102.989C81.3745 102.609 79.4024 101.7 76.9235 100.713C76.007 100.348 75.2376 100.337 74.6468 100.453L74.652 100.458ZM100.234 76.176L88.2807 99.5311C87.9131 100.251 87.3038 100.834 86.5712 101.17L83.4148 102.617L100.323 70.6982L100.62 74.2249C100.678 74.8971 100.544 75.572 100.237 76.1733L100.234 76.176Z" fill="white"/>
</g>
<g clip-path="url(#clip1_1523_226)">
<path d="M59 0C26.4163 0 0 26.4163 0 59C0 91.5837 26.4163 118 59 118C91.5837 118 118 91.5837 118 59C118 26.4163 91.5837 0 59 0ZM59 6.50836C72.3235 6.50836 84.4854 11.4748 93.7418 19.6562L19.6562 93.7418C11.4775 84.4854 6.50836 72.3235 6.50836 59C6.50836 30.0087 30.0087 6.50836 59 6.50836ZM59 111.492C45.6765 111.492 33.5146 106.525 24.2582 98.3438L98.3438 24.2582C106.523 33.5146 111.492 45.6765 111.492 59C111.492 87.9913 87.9913 111.492 59 111.492Z" fill="white"/>
</g>
<defs>
<clipPath id="clip0_1523_226">
<rect width="81.6301" height="92" fill="white" transform="translate(19 11)"/>
</clipPath>
<clipPath id="clip1_1523_226">
<rect width="118" height="118" fill="white"/>
</clipPath>
</defs>
</svg>
