<svg width="118" height="118" viewBox="0 0 118 118" fill="none" xmlns="http://www.w3.org/2000/svg">
<path d="M75.6069 16.0988C78.7019 18.6917 81.2437 22.0056 81.6996 26.129C81.8972 30.2626 81.8972 30.2626 81.4847 31.5001C81.6398 31.5533 81.7949 31.6065 81.9547 31.6612C83.1719 32.2022 83.8414 32.8805 84.3364 34.1059C85.219 37.5935 84.0663 41.584 82.3046 44.6131C81.4716 45.7402 80.0434 46.469 78.6917 46.754C78.676 46.9224 78.6602 47.0908 78.6439 47.2643C77.8885 50.7871 75.5455 54.0033 73.2206 56.6759C71.6945 58.4316 71.0328 59.6158 71.0958 61.9861C71.2771 63.5675 71.8223 64.9079 72.891 66.09C73.3979 66.4968 73.398 66.4968 73.9652 66.8419C74.1469 66.9593 74.3285 67.0768 74.5157 67.1978C76.5553 68.2917 78.7024 68.9526 80.9207 69.5812C85.9331 71.0371 90.71 72.8892 94.805 76.1876C94.9429 76.2901 95.0809 76.3926 95.223 76.4981C97.0565 77.9224 98.3798 79.9847 99.4242 82.0287C99.4942 82.1637 99.5643 82.2986 99.6364 82.4377C100.744 84.7166 100.686 87.115 100.685 89.5949C100.686 90.1795 100.694 90.7638 100.702 91.3484C100.704 91.7246 100.704 92.1009 100.705 92.4771C100.708 92.6495 100.711 92.8219 100.714 92.9995C100.703 94.4304 100.297 95.5609 99.3285 96.6288C96.5539 98.752 93.5617 100.516 90.2933 101.754C90.1402 101.813 89.9871 101.871 89.8293 101.931C82.2523 104.765 73.8628 106.4 65.8011 106.91C65.5445 106.928 65.5445 106.928 65.2828 106.946C55.6827 107.594 45.89 106.822 36.5824 104.332C36.3768 104.277 36.1712 104.223 35.9593 104.166C21.8887 100.337 21.8887 100.337 18.7503 95.5236C18.243 94.5328 18.2514 93.6184 18.2485 92.5309C18.247 92.3445 18.2456 92.1581 18.2441 91.9661C18.242 91.5714 18.241 91.1766 18.241 90.7819C18.2401 90.1887 18.2323 89.5959 18.2241 89.0027C18.1939 84.271 19.5234 80.6871 22.8324 77.2618C27.3747 72.8616 33.6418 70.4722 39.6072 68.7341C42.6849 67.8367 45.7048 66.9182 47.3564 63.9239C47.9723 62.4012 48.0275 60.5138 47.6284 58.9305C47.1435 57.8339 46.2875 57.0192 45.4816 56.1501C43.4718 53.881 40.2347 49.5051 40.2347 46.3243C40.0885 46.3066 39.9423 46.2889 39.7916 46.2706C38.277 45.8839 37.2044 45.0436 36.3675 43.7462C34.8835 40.9301 33.8371 37.391 34.5497 34.205C35.0119 32.8465 35.7305 31.926 37.0121 31.2853C37.1538 31.2853 37.2956 31.2853 37.4417 31.2853C37.4074 31.1454 37.3731 31.0056 37.3377 30.8615C36.7636 27.491 37.3231 23.97 38.9456 20.9728C39.0307 20.8152 39.1157 20.6576 39.2033 20.4952C41.9452 15.9584 47.1258 13.0742 52.1241 11.7488C60.0614 9.82753 69.0895 10.8822 75.6069 16.0988ZM44.0482 21.4033C42.0676 23.6624 41.6013 26.3512 41.7056 29.2817C41.8241 31.0733 42.0288 33.0151 42.598 34.7228C42.3883 34.7513 42.1787 34.7798 41.9627 34.8092C41.5527 34.8661 41.5527 34.8661 41.1344 34.9242C40.7268 34.9803 40.7268 34.9803 40.3111 35.0375C39.5938 35.1318 39.5938 35.1318 38.9456 35.3673C39.0201 37.6764 39.3504 39.8589 40.6644 41.8126C41.284 42.1224 41.8283 42.0476 42.5174 42.0409C42.9004 42.038 42.9004 42.038 43.2912 42.035C43.5861 42.0313 43.5861 42.0313 43.8871 42.0275C43.9048 42.2889 43.9225 42.5503 43.9408 42.8197C44.469 47.3412 47.104 51.1943 49.9832 54.569C51.943 56.8973 52.523 59.3944 52.266 62.4376C51.8627 65.399 50.7672 67.9511 48.3585 69.8094C45.8091 71.6991 42.9199 72.6772 39.916 73.6105C35.1542 75.0906 30.5928 76.8671 26.6996 80.0548C26.5735 80.1459 26.4475 80.237 26.3177 80.3309C24.5553 81.6352 23.3144 83.7421 22.8324 85.8556C22.6961 86.7761 22.6416 87.6768 22.6325 88.6069C22.616 89.1272 22.563 89.6387 22.5109 90.1567C22.4356 91.2696 22.3882 92.3317 22.8324 93.3751C23.7717 94.4228 25.0962 94.9598 26.3678 95.5028C26.8605 95.7152 27.3335 95.9454 27.809 96.1933C35.2675 100.027 43.9604 101.775 52.266 102.399C52.4241 102.411 52.5822 102.423 52.7451 102.435C66.154 103.412 82.4999 101.875 94.1605 94.6642C94.3404 94.5938 94.5203 94.5235 94.7057 94.451C95.3676 94.1545 95.8075 93.9028 96.3089 93.3751C96.5603 92.3953 96.5556 91.46 96.5064 90.4586C96.4837 89.9953 96.4756 89.5336 96.4705 89.0699C96.396 85.3369 95.1333 82.6586 92.4417 80.0548C89.2936 77.2739 85.4306 75.7367 81.4847 74.4689C80.4278 74.1286 79.3717 73.7858 78.3165 73.4402C77.8594 73.2916 77.4013 73.1465 76.9431 73.0015C73.0669 71.7531 69.6837 69.9309 67.6818 66.241C66.4398 63.5294 66.3427 60.1372 67.2916 57.33C67.968 55.8411 69.0407 54.6454 70.098 53.4142C72.8586 50.1451 74.3983 46.8612 75.2542 42.672C75.5454 42.6367 75.5454 42.6367 75.8425 42.6007C76.0959 42.5666 76.3494 42.5325 76.6104 42.4974C76.8622 42.465 77.1139 42.4326 77.3733 42.3992C78.0746 42.2359 78.2899 42.176 78.6917 41.5978C78.9944 41.0014 78.9944 41.0014 79.2557 40.3356C79.3471 40.1146 79.4385 39.8936 79.5327 39.6659C79.8849 38.6901 80.008 37.8389 79.9942 36.8041C79.9913 36.5195 79.9913 36.5195 79.9884 36.2292C79.9859 36.0866 79.9834 35.9439 79.9808 35.797C79.1849 35.5038 78.3996 35.2991 77.5688 35.1374C77.3765 35.0997 77.1841 35.062 76.9859 35.0231C76.8398 34.9949 76.6938 34.9667 76.5433 34.9376C76.5628 34.8169 76.5824 34.6963 76.6025 34.5719C77.695 28.0448 77.695 28.0448 75.3868 22.0722C75.2722 21.9221 75.1575 21.772 75.0394 21.6173C74.9292 21.4716 74.8189 21.326 74.7054 21.1759C71.7674 17.5632 66.8529 15.7391 62.3636 15.172C61.4495 15.1118 60.5403 15.1001 59.6244 15.1049C59.38 15.1061 59.1356 15.1073 58.8838 15.1085C53.1847 15.1903 48.0367 17.2781 44.0482 21.4033Z" fill="white"/>
<g clip-path="url(#clip0_1533_241)">
<line y1="115.5" x2="25" y2="115.5" stroke="white" stroke-width="5"/>
<line x1="2.5" y1="93" x2="2.5" y2="118" stroke="white" stroke-width="5"/>
<line x1="118" y1="2.5" x2="93" y2="2.5" stroke="white" stroke-width="5"/>
<line x1="115.5" y1="25" x2="115.5" y2="-3.27835e-07" stroke="white" stroke-width="5"/>
<line x1="115.5" y1="118" x2="115.5" y2="93" stroke="white" stroke-width="5"/>
<line x1="93" y1="115.5" x2="118" y2="115.5" stroke="white" stroke-width="5"/>
<line x1="2.5" y1="1.09278e-07" x2="2.5" y2="25" stroke="white" stroke-width="5"/>
<line x1="25" y1="2.5" x2="-2.18557e-07" y2="2.5" stroke="white" stroke-width="5"/>
<path d="M101.091 67.8176C100.34 67.3106 99.6834 66.6982 99.012 66.0841C98.7633 65.8597 98.5146 65.6354 98.2656 65.4112C97.8626 65.0479 97.46 64.6841 97.0585 64.3188C96.2923 63.6222 95.517 62.9423 94.724 62.2787C90.25 58.4687 90.25 58.4687 90.0056 56.1296C89.8861 52.813 91.6899 51.0693 93.7292 48.7735C94.2298 48.213 94.7327 47.6549 95.2365 47.0976C96.1253 46.1125 96.9731 45.0927 97.8141 44.0632C97.9779 43.8669 98.1416 43.6705 98.3103 43.4682C98.4588 43.2878 98.6073 43.1073 98.7602 42.9214C99.2503 42.4359 99.6139 42.2284 100.259 42.0327C101.002 42.0643 101.385 42.1508 101.975 42.6286C102.562 43.4163 102.772 43.9157 102.709 44.9249C102.53 45.7949 102.308 46.1622 101.754 46.8267C101.586 47.0298 101.418 47.2329 101.244 47.4421C100.429 48.3909 99.6004 49.3279 98.7659 50.2589C98.1545 50.9423 97.5619 51.6415 96.976 52.3487C96.8282 52.5262 96.6766 52.7005 96.5172 52.8667C96.7571 52.867 96.997 52.8673 97.2442 52.8676C99.5049 52.8712 101.766 52.8805 104.026 52.8953C105.188 52.9027 106.351 52.9082 107.513 52.9091C108.634 52.91 109.756 52.9161 110.877 52.9259C111.305 52.9288 111.733 52.9297 112.161 52.9287C112.761 52.9276 113.36 52.9333 113.959 52.9405C114.136 52.9386 114.313 52.9367 114.496 52.9348C115.401 52.9531 115.748 52.9975 116.482 53.6031C117.023 54.3478 117.03 54.7486 116.981 55.6497C116.847 56.3475 116.558 56.7261 116.06 57.2003C115.243 57.484 114.461 57.4554 113.61 57.4614C113.423 57.4636 113.236 57.4657 113.044 57.4679C112.426 57.4748 111.809 57.4802 111.191 57.4855C110.763 57.49 110.335 57.4945 109.907 57.4992C108.781 57.5111 107.654 57.5218 106.527 57.5323C105.377 57.5432 104.228 57.5552 103.078 57.5672C100.822 57.5905 98.5655 57.6125 96.3093 57.6336C96.8039 58.0823 97.2988 58.5305 97.7938 58.9786C97.9325 59.1044 98.0713 59.2303 98.2142 59.3599C99.0065 60.0768 99.8063 60.7798 100.623 61.4662C100.987 61.7776 101.351 62.0891 101.715 62.4006C101.926 62.5763 102.138 62.752 102.356 62.933C104.122 64.4725 104.122 64.4725 104.313 65.5966C104.309 66.3029 104.154 66.7186 103.742 67.2759C102.897 68.076 102.156 68.2156 101.091 67.8176Z" fill="white"/>
<path d="M17.0239 68.9317C16.4125 68.6199 16.4125 68.6199 15.9833 68.064C15.7264 67.1728 15.6306 66.4441 16.0052 65.5831C16.4969 64.8899 17.0789 64.3645 17.7133 63.8206C17.9751 63.5916 18.2369 63.3626 18.4986 63.1335C18.633 63.0167 18.7673 62.9 18.9057 62.7798C19.5627 62.2066 20.2116 61.6237 20.8611 61.0414C21.0906 60.8363 21.3201 60.6313 21.5497 60.4263C21.7754 60.2246 22.0012 60.0229 22.2269 59.8213C22.7125 59.3874 23.1981 58.9536 23.6837 58.5198C23.4431 58.518 23.2025 58.5163 22.9545 58.5145C20.6884 58.4977 18.4222 58.4786 16.1561 58.4574C14.991 58.4466 13.8259 58.4365 12.6608 58.4283C11.5367 58.4203 10.4126 58.4102 9.28855 58.3987C8.85939 58.3947 8.43023 58.3914 8.00106 58.3889C7.4006 58.3853 6.80022 58.379 6.19979 58.372C5.9328 58.3713 5.9328 58.3713 5.66042 58.3706C5.49642 58.3682 5.33241 58.3658 5.16344 58.3633C5.02148 58.3621 4.87951 58.3609 4.73325 58.3596C4.24109 58.2906 3.9169 58.1429 3.49605 57.869C2.93785 56.9964 2.93653 56.2916 3.07981 55.2661C3.51976 54.5071 3.7286 54.2453 4.53665 53.9646C5.13492 53.9385 5.7285 53.9244 6.32697 53.9201C6.50975 53.9179 6.69254 53.9158 6.88086 53.9136C7.48557 53.9067 8.09028 53.9013 8.695 53.896C9.11406 53.8915 9.53312 53.8869 9.95218 53.8823C11.0556 53.8703 12.159 53.8596 13.2624 53.8491C14.3882 53.8383 15.514 53.8262 16.6398 53.8142C18.849 53.7909 21.0582 53.7689 23.2675 53.7477C22.8671 53.2606 22.4668 52.7735 22.0663 52.2865C21.8972 52.0807 21.8972 52.0807 21.7247 51.8708C21.1547 51.1775 20.5838 50.485 20.0091 49.7958C19.9082 49.6744 19.8074 49.5531 19.7034 49.428C19.5067 49.1915 19.3093 48.9554 19.1116 48.7197C17.26 46.4856 17.26 46.4856 17.232 44.8542C17.5473 43.9833 17.7326 43.6387 18.4807 43.1189C19.1189 43.0006 19.7147 43.0075 20.3538 43.1189C20.8741 43.5392 20.8741 43.5392 21.3944 44.2035C21.6958 44.5175 21.9995 44.8291 22.3049 45.1389C23.0074 45.871 23.6727 46.6218 24.3195 47.4072C24.8258 48.0122 25.3471 48.6022 25.869 49.1925C26.2508 49.6261 26.6322 50.06 27.0137 50.494C27.2249 50.7335 27.2249 50.7335 27.4405 50.9778C29.0568 52.8492 30.019 54.3383 29.9997 56.9073C29.7051 59.9401 26.884 61.9534 24.7869 63.7817C24.4198 64.0917 24.052 64.4009 23.6837 64.7095C22.7847 65.4794 21.9117 66.2801 21.0409 67.0844C18.7689 69.1626 18.7689 69.1626 17.0239 68.9317Z" fill="white"/>
</g>
<defs>
<clipPath id="clip0_1533_241">
<rect width="118" height="118" fill="white"/>
</clipPath>
</defs>
</svg>
